<?xml version="1.0" encoding="UTF-8" standalone="no"?>
<!-- Created with Inkscape (http://www.inkscape.org/) -->

<svg
   xmlns:dc="http://purl.org/dc/elements/1.1/"
   xmlns:cc="http://creativecommons.org/ns#"
   xmlns:rdf="http://www.w3.org/1999/02/22-rdf-syntax-ns#"
   xmlns:svg="http://www.w3.org/2000/svg"
   xmlns="http://www.w3.org/2000/svg"
   xmlns:sodipodi="http://sodipodi.sourceforge.net/DTD/sodipodi-0.dtd"
   xmlns:inkscape="http://www.inkscape.org/namespaces/inkscape"
   width="4096"
   height="2048"
   viewBox="0 0 0 1052.3622"
   id="svg2"
   version="1.1"
   inkscape:version="0.91 r13725"
   sodipodi:docname="mountains.svg"
   inkscape:export-filename="/home/kubuntu/Documents/vr_space/mountains.png"
   inkscape:export-xdpi="90"
   inkscape:export-ydpi="90">
  <defs
     id="defs4" />
  <sodipodi:namedview
     id="base"
     pagecolor="#ffffff"
     bordercolor="#666666"
     borderopacity="1.0"
     inkscape:pageopacity="0.0"
     inkscape:pageshadow="2"
     inkscape:zoom="0.27714669"
     inkscape:cx="2209.6255"
     inkscape:cy="308.68145"
     inkscape:document-units="px"
     inkscape:current-layer="layer1"
     showgrid="false"
     units="px"
     inkscape:window-width="1898"
     inkscape:window-height="1022"
     inkscape:window-x="10"
     inkscape:window-y="10"
     inkscape:window-maximized="0" />
  <metadata
     id="metadata7">
    <rdf:RDF>
      <cc:Work
         rdf:about="">
        <dc:format>image/svg+xml</dc:format>
        <dc:type
           rdf:resource="http://purl.org/dc/dcmitype/StillImage" />
        <dc:title></dc:title>
      </cc:Work>
    </rdf:RDF>
  </metadata>
  <g
     inkscape:label="Layer 1"
     inkscape:groupmode="layer"
     id="layer1"
     transform="translate(0,995.63784)">
    <path
       style="fill:#008000"
       d="m 2931.6704,548.48294 -146.6542,275.62396 -41.2161,77.46185 -68.6142,-127.03389 -89.3041,167.60659 -134.9945,-249.06601 -34.2035,63.97072 -95.3822,-175.97884 -116.8704,218.58331 -24.6005,-27.15151 -3.3585,3.75744 0,297.32204 1932.1104,0 0,-298.42945 -63.4368,70.97368 -119.2954,-131.66447 -83.3414,93.24267 -121.7333,-224.59701 -110.5838,206.82478 -33.7307,-62.23329 -131.2268,245.43363 -130.8182,-241.36023 -134.8478,252.20333 -6.4738,12.10908 -93.2645,-172.91054 -148.1597,-274.68784 z"
       id="path3344"
       inkscape:connector-curvature="0" />
    <path
       style="fill:#f9f9f9"
       d="m 2321.0345,571.95187 -29.0931,54.8743 -28.511,53.77568 -0.591,0 0.3191,0.51344 -0.3106,0.58556 0.6624,-0.0193 9.4326,15.17836 10.103,16.2576 10.1032,-16.2576 10.103,-16.25801 -3.0121,0 4.2008,-0.12333 8.8846,14.297 10.1031,16.2576 10.1035,-16.2576 9.5908,-15.43386 1.5074,-0.0444 9.3024,14.64438 10.3273,16.25758 10.3279,-16.25758 10.0493,-15.81994 0.7118,-0.021 -32.1571,-53.07448 -32.1573,-53.07446 z"
       id="path3450"
       inkscape:connector-curvature="0" />
    <path
       style="fill:#f9f9f9"
       d="m 2451.0285,691.4108 -25.4856,40.62483 -24.9756,39.81156 -0.518,0 0.2797,0.38007 -0.2719,0.4335 0.5801,-0.0147 8.2628,11.23694 8.8504,12.03593 8.8503,-12.03593 8.8504,-12.03618 -2.6387,0 3.6799,-0.0913 7.7829,10.58443 8.8503,12.03593 8.8508,-12.03593 8.4016,-11.42609 1.3205,-0.0327 8.1488,10.84159 9.0469,12.03593 9.0471,-12.03593 8.8032,-11.71191 0.6237,-0.0156 -28.1698,-39.29238 -28.1698,-39.29238 z"
       id="path3450-3"
       inkscape:connector-curvature="0" />
    <path
       style="fill:#f9f9f9"
       d="m 2676.2828,768.79798 -23.2309,39.83322 -22.7661,39.03573 -0.4721,0 0.2549,0.37273 -0.248,0.42507 0.5289,-0.0147 7.5318,11.01796 8.0675,11.80136 8.0674,-11.80136 8.0673,-11.80167 -2.4052,0 3.3543,-0.0896 7.0944,10.37819 8.0674,11.80135 8.0677,-11.80135 7.6583,-11.20346 1.2035,-0.0322 7.4281,10.63034 8.2464,11.80138 8.2467,-11.80138 8.0244,-11.48371 0.5685,-0.0153 -25.6776,-38.52672 -25.6776,-38.52674 z"
       id="path3450-6"
       inkscape:connector-curvature="0" />
    <path
       style="fill:#f9f9f9"
       d="m 2928.218,534.6002 -38.1116,73.08187 -37.3493,71.61875 -0.7745,0 0.4182,0.6838 -0.4068,0.77985 0.8678,-0.0261 12.3565,20.21456 13.2351,21.65199 13.235,-21.65199 13.2351,-21.6525 -3.946,0 5.5029,-0.16419 11.6388,19.04079 13.235,21.65199 13.2357,-21.65199 12.564,-20.55488 1.9746,-0.0594 12.1861,19.50345 13.5287,21.6519 13.5296,-21.6519 13.1645,-21.06905 0.9326,-0.028 -42.126,-70.68489 -42.126,-70.68482 z"
       id="path3450-0"
       inkscape:connector-curvature="0" />
    <path
       style="fill:#f9f9f9"
       d="m 3310.3189,721.95844 -25.0347,49.33278 -24.5337,48.34515 -0.5088,0 0.2747,0.46157 -0.2672,0.52645 0.57,-0.0177 8.1166,13.64558 8.6938,14.6158 8.6937,-14.6158 8.6937,-14.61622 -2.5918,0 3.6147,-0.1108 7.6451,12.85318 8.6938,14.61581 8.6942,-14.61581 8.2529,-13.87526 1.2972,-0.0398 8.0045,13.16552 8.8869,14.61581 8.8871,-14.61581 8.6473,-14.22237 0.6127,-0.0187 -27.6715,-47.71473 -27.6712,-47.71473 z"
       id="path3450-62"
       inkscape:connector-curvature="0" />
    <path
       style="fill:#f9f9f9"
       d="m 3581.8584,713.81234 -25.0345,35.08336 -24.5337,34.38102 -0.5088,0 0.2747,0.32826 -0.2672,0.37437 0.57,-0.0133 8.1167,9.70414 8.6937,10.39418 8.6938,-10.39418 8.6937,-10.39438 -2.5919,0 3.6146,-0.0788 7.6453,9.14066 8.6936,10.39416 8.6942,-10.39416 8.2531,-9.86748 1.2969,-0.0283 8.0048,9.36271 8.8868,10.39418 8.8869,-10.39418 8.6477,-10.1143 0.6124,-0.0133 -27.6713,-33.93271 -27.6715,-33.9327 z"
       id="path3450-61"
       inkscape:connector-curvature="0" />
    <path
       style="fill:#f9f9f9"
       d="m 3719.385,573.29359 -26.3874,46.95794 -25.8595,46.01784 -0.5363,0 0.2896,0.43937 -0.2816,0.50108 0.6007,-0.0165 8.5554,12.98865 9.1635,13.91223 9.1635,-13.91223 9.1635,-13.91254 -2.732,0 3.81,-0.10551 8.0584,12.23449 9.1636,13.91221 9.1639,-13.91221 8.6989,-13.20733 1.3672,-0.0379 8.4372,12.53171 9.3669,13.91223 9.3674,-13.91223 9.1148,-13.5377 0.6456,-0.0181 -29.1666,-45.41774 -29.1667,-45.41777 z"
       id="path3450-8"
       inkscape:connector-curvature="0" />
    <path
       style="fill:#f9f9f9"
       d="m 3923.5619,705.66628 -25.9364,29.54197 -25.4175,28.95048 -0.527,0 0.2845,0.27645 -0.2769,0.31521 0.5905,-0.0103 8.4092,8.17139 9.0067,8.75237 9.007,-8.75237 9.007,-8.7526 -2.6853,0 3.7449,-0.0663 7.9207,7.69687 9.0069,8.75236 9.0074,-8.75236 8.5502,-8.30894 1.3438,-0.0237 8.2931,7.88386 9.2069,8.75242 9.2072,-8.75242 8.959,-8.51673 0.6346,-0.0118 -28.6682,-28.57302 -28.6683,-28.57302 z"
       id="path3450-7"
       inkscape:connector-curvature="0" />
    <path
       style="fill:#f9f9f9"
       d="m 4107.705,764.72538 -17.3687,23.20806 -17.0211,22.74436 -0.3533,0 0.1908,0.21757 -0.1854,0.24708 0.3958,-0.007 5.6311,6.42021 6.0313,6.87599 6.0313,-6.87599 6.0321,-6.87699 -1.798,0 2.5076,-0.0522 5.3044,6.04715 6.0312,6.876 0.6022,-0.68618 0,-55.76187 -2.0313,-2.37535 z"
       id="path3450-9"
       inkscape:connector-curvature="0" />
    <path
       style="fill:#f9f9f9"
       d="m 2180.3428,764.72538 -5.4897,7.33571 0,43.60069 0.8865,1.011 6.0323,6.876 6.0313,-6.876 5.7255,-6.52751 0.9006,-0.0187 5.5531,6.19382 6.1652,6.87593 6.1664,-6.87593 5.9991,-6.69093 0.425,-0.009 -19.198,-22.44811 -19.1973,-22.44709 z"
       id="path3450-9-2"
       inkscape:connector-curvature="0" />
    <path
       style="fill:#008000"
       d="M 849.60014,558.41632 683.89181,824.56061 637.32089,899.35827 559.79184,776.69353 458.8849,938.53555 306.35117,698.03577 267.70377,759.80632 159.92905,589.88 27.87426,800.94548 0.07739257,774.7278 l -3.79482627,3.62821 0,287.09609 2183.1403337,0 0,-288.16542 -71.6787,68.53265 -134.7948,-127.13606 -94.1697,90.03572 -137.5494,-216.87232 -124.9514,199.71135 -38.1134,-60.09288 -148.2764,236.9923 -147.8149,-233.059 -152.3678,243.52917 -7.3148,11.69255 L 1017.0094,823.65668 849.60014,558.41632 Z"
       id="path3344-0"
       inkscape:connector-curvature="0" />
    <path
       style="fill:#f9f9f9"
       d="m 159.62721,581.07807 -32.87299,52.98698 -32.215248,51.92615 -0.667962,0 0.360633,0.49578 -0.350876,0.56542 0.748423,-0.0186 10.65807,14.65631 11.41567,15.69845 11.41579,-15.69845 11.41577,-15.69883 -3.40347,0 4.74654,-0.11909 10.03891,13.80527 11.41578,15.69845 11.41626,-15.69845 10.83685,-14.90303 1.70323,-0.0429 10.51096,14.14071 11.66918,15.69843 11.66967,-15.69843 11.35508,-15.27584 0.80424,-0.0202 -36.33527,-51.24907 -36.33524,-51.24905 z"
       id="path3450-2"
       inkscape:connector-curvature="0" />
    <path
       style="fill:#f9f9f9"
       d="m 306.51066,696.42839 -28.79678,39.22759 -28.2206,38.44231 -0.58523,0 0.316,0.367 -0.30732,0.41859 0.65558,-0.0142 9.33644,10.85045 10.00025,11.62198 10.00023,-11.62198 10.00023,-11.62221 -2.98154,0 4.15796,-0.0883 8.79419,10.22039 10.00022,11.62198 10.00061,-11.62198 9.49319,-11.03309 1.49207,-0.0317 9.20755,10.46871 10.2222,11.62196 10.2227,-11.62196 9.94691,-11.3091 0.70462,-0.0151 -31.82974,-37.94098 -31.82974,-37.94099 z"
       id="path3450-3-3"
       inkscape:connector-curvature="0" />
    <path
       style="fill:#f9f9f9"
       d="m 561.03111,771.15395 -26.24908,38.46323 -25.72395,37.69316 -0.53347,0 0.28804,0.35989 -0.28019,0.41045 0.59762,-0.0143 8.51042,10.63901 9.11553,11.39548 9.11553,-11.39548 9.11554,-11.39577 -2.71767,0 3.79008,-0.0865 8.01611,10.02125 9.11553,11.39547 9.1159,-11.39547 8.65336,-10.81813 1.35996,-0.031 8.39306,10.26473 9.31787,11.39549 9.31823,-11.39549 9.06698,-11.08875 0.64226,-0.0148 -29.01377,-37.20166 -29.01389,-37.20165 z"
       id="path3450-6-7"
       inkscape:connector-curvature="0" />
    <path
       style="fill:#f9f9f9"
       d="m 845.69927,545.01106 -43.06342,70.56832 -42.20181,69.15554 -0.87519,0 0.47253,0.66028 -0.45965,0.75302 0.9805,-0.0252 13.96194,19.51932 14.9547,20.9073 14.95459,-20.9073 14.95459,-20.90779 -4.45862,0 6.21791,-0.15857 13.15103,18.38592 14.95458,20.90731 14.95532,-20.90731 14.19628,-19.84792 2.23121,-0.0573 13.76936,18.83264 15.28654,20.90723 15.28726,-20.90723 14.87496,-20.3444 1.05371,-0.027 -47.59916,-68.25379 -47.59916,-68.25372 z"
       id="path3450-0-5"
       inkscape:connector-curvature="0" />
    <path
       style="fill:#f9f9f9"
       d="m 1277.4446,725.92539 -28.2873,47.63607 -27.7213,46.68238 -0.5748,0 0.3104,0.44569 -0.302,0.50834 0.6441,-0.0171 9.1712,13.17625 9.8232,14.11312 9.8235,-14.11312 9.8232,-14.1135 -2.9287,0 4.0844,-0.10699 8.6385,12.41111 9.8232,14.11312 9.8238,-14.11312 9.3252,-13.39804 1.4656,-0.0384 9.0446,12.71271 10.0415,14.11312 10.0417,-14.11312 9.771,-13.73322 0.6922,-0.0181 -31.2668,-46.07365 -31.2664,-46.07365 z"
       id="path3450-62-9"
       inkscape:connector-curvature="0" />
    <path
       style="fill:#f9f9f9"
       d="m 1584.264,718.05946 -28.2871,33.87671 -27.7212,33.19855 -0.575,0 0.3106,0.31697 -0.3021,0.36149 0.6441,-0.0128 9.1711,9.37038 9.8235,10.03668 9.8233,-10.03668 9.8232,-10.03688 -2.9287,0 4.0842,-0.0761 8.6387,8.82627 9.8232,10.03669 9.8237,-10.03669 9.3253,-9.5281 1.4656,-0.0273 9.0446,9.0407 10.0415,10.03668 10.0416,-10.03668 9.7711,-9.76644 0.6921,-0.0128 -31.2665,-32.76564 -31.2668,-32.76565 z"
       id="path3450-61-2"
       inkscape:connector-curvature="0" />
    <path
       style="fill:#f9f9f9"
       d="m 1739.6588,582.37364 -29.8158,45.3429 -29.2193,44.43511 -0.606,0 0.3273,0.42427 -0.3182,0.48384 0.6786,-0.0159 9.667,12.54194 10.3542,13.43374 10.354,-13.43374 10.3541,-13.43404 -3.0869,0 4.3051,-0.10183 9.1054,11.81369 10.354,13.43372 10.3545,-13.43372 9.8292,-12.75308 1.5448,-0.0366 9.5334,12.10071 10.5839,13.43375 10.5844,-13.43375 10.299,-13.0721 0.7296,-0.0175 -32.9562,-43.85566 -32.9561,-43.8557 z"
       id="path3450-8-2"
       inkscape:connector-curvature="0" />
    <path
       style="fill:#f9f9f9"
       d="m 1970.3634,710.19357 -29.3062,28.52593 -28.7198,27.95476 -0.5956,0 0.3215,0.26695 -0.3129,0.30437 0.6673,-0.0103 9.5017,7.89036 10.1771,8.45135 10.1772,-8.45135 10.1772,-8.45157 -3.0342,0 4.2315,-0.064 8.9498,7.43216 10.177,8.45133 10.1778,-8.45133 9.6609,-8.02317 1.5186,-0.0229 9.3704,7.61271 10.4031,8.45139 10.4035,-8.45139 10.1229,-8.22382 0.7172,-0.0114 -32.3929,-27.59029 -32.3931,-27.59029 z"
       id="path3450-7-8"
       inkscape:connector-curvature="0" />
    <path
       style="fill:#f9f9f9"
       d="m 2178.4314,767.22143 -19.6255,22.40985 -19.2324,21.9621 -0.3993,0 0.2157,0.21009 -0.2094,0.23858 0.447,-0.007 6.3628,6.19941 6.8149,6.6395 6.815,-6.6395 6.8158,-6.64048 -2.0318,0 2.8335,-0.0503 5.9936,5.83917 6.815,6.6395 0.6803,-0.66257 0,-53.84403 -2.2952,-2.29364 z"
       id="path3450-9-9"
       inkscape:connector-curvature="0" />
    <path
       style="fill:#f9f9f9"
       d="m 0.65608494,767.22143 -6.20302884,7.08341 0,42.10111 1.0018208,0.97623 6.8159999,6.6395 6.8149287,-6.6395 6.4695215,-6.30301 1.017414,-0.0181 6.27468,5.9808 6.966327,6.63945 6.967399,-6.63945 6.778626,-6.46081 0.480141,-0.008 -21.69239,-21.67634 -21.69143906,-21.67507 z"
       id="path3450-9-2-7"
       inkscape:connector-curvature="0" />
    <path
       style="fill:#f9f9f9"
       d="m 2186.724,752.38896 -28.2872,33.87671 -27.7212,33.19854 -0.5749,0 0.3104,0.31698 -0.302,0.36149 0.644,-0.0128 9.1713,9.37038 9.8233,10.03668 9.8233,-10.03668 9.8233,-10.03688 -2.9288,0 4.0843,-0.0761 8.6386,8.82627 9.8233,10.03668 9.8237,-10.03668 9.3252,-9.5281 1.4656,-0.0273 9.0448,9.04071 10.0414,10.03668 10.0416,-10.03668 9.771,-9.76644 0.6921,-0.0128 -31.2665,-32.76564 -31.2666,-32.76565 z"
       id="path3450-61-2-3"
       inkscape:connector-curvature="0" />
  </g>
</svg>
